<?xml version="1.0" encoding="utf-8"?>
<!-- Generator: Adobe Illustrator 19.2.1, SVG Export Plug-In . SVG Version: 6.00 Build 0)  -->
<!DOCTYPE svg PUBLIC "-//W3C//DTD SVG 1.1//EN" "http://www.w3.org/Graphics/SVG/1.1/DTD/svg11.dtd">
<svg version="1.1" id="Layer_1" xmlns="http://www.w3.org/2000/svg" xmlns:xlink="http://www.w3.org/1999/xlink" x="0px" y="0px"
	 viewBox="0 0 182.2 174.7" style="enable-background:new 0 0 182.2 174.7;" xml:space="preserve">
<style type="text/css">
	.st0{fill:#FFFFFF;}
</style>
<g id="Layer_2">
</g>
<g>
	<path class="st0" d="M112.5,3c7.3,0,13.8,4.4,16.6,11.1s1.2,14.5-3.9,19.6l-87.1,87.2c-3.5,3.5-8.1,5.3-12.7,5.3s-9.2-1.8-12.7-5.3
		c-7-7-7-18.4,0-25.5L69,39H21c-9.9,0-18-8.1-18-18S11.1,3,21,3H112.5 M112.5,0H21C9.4,0,0,9.4,0,21s9.4,21,21,21h40.8L10.5,93.3
		c-8.2,8.2-8.2,21.5,0,29.7c4,4,9.2,6.2,14.8,6.2s10.9-2.2,14.8-6.2l87.1-87.1c6-6,7.8-15,4.6-22.9C128.6,5.1,121,0,112.5,0L112.5,0
		z"/>
</g>
<g>
	<path class="st0" d="M156.8,48.5c4.6,0,9.2,1.8,12.7,5.3c7,7,7,18.4,0,25.5l-56.4,56.3h48c9.9,0,18,8.1,18,18s-8.1,18-18,18H69.6
		c-7.3,0-13.8-4.4-16.6-11.1c-2.8-6.7-1.2-14.5,3.9-19.6l87.2-87.1C147.6,50.3,152.2,48.5,156.8,48.5 M156.8,45.5
		c-5.6,0-10.9,2.2-14.8,6.2l-87.1,87.1c-6,6-7.8,15-4.6,22.9c3.3,7.9,10.9,13,19.4,13h91.5c11.6,0,21-9.4,21-21s-9.4-21-21-21h-40.8
		l51.3-51.3c4-4,6.2-9.2,6.2-14.8s-2.2-10.9-6.2-14.8C167.7,47.7,162.4,45.5,156.8,45.5L156.8,45.5z"/>
</g>
</svg>
